<?xml version="1.0" ?><!DOCTYPE svg  PUBLIC '-//W3C//DTD SVG 1.0//EN'  'http://www.w3.org/TR/2001/REC-SVG-20010904/DTD/svg10.dtd'><svg enable-background="new 0 0 24 24" id="Layer_1" version="1.0" viewBox="0 0 24 24" xml:space="preserve" xmlns="http://www.w3.org/2000/svg" xmlns:xlink="http://www.w3.org/1999/xlink"><path d="M9,13  c-0.7,0.7-2.3,1.8-2.5,2c-0.7,0.7-0.7,1.8,0,2.5s1.8,0.7,2.5,0c0.1-0.1,1.3-1.9,2-2.5" fill="none" stroke="#000000" stroke-linejoin="round" stroke-miterlimit="10" stroke-width="2"/><path d="M7,11  c-0.9,0.9-2.4,2-2.7,2.3c-1.8,1.8-1.8,4.6,0,6.4c1.8,1.8,4.6,1.8,6.4,0c0.3-0.3,1.2-1.5,2.3-2.7" fill="none" stroke="#000000" stroke-linejoin="round" stroke-miterlimit="10" stroke-width="2"/><path d="M15,11  c0.7-0.7,2.3-1.8,2.5-2c0.7-0.7,0.7-1.8,0-2.5s-1.8-0.7-2.5,0c-0.1,0.1-1.3,1.9-2,2.5" fill="none" stroke="#000000" stroke-linejoin="round" stroke-miterlimit="10" stroke-width="2"/><path d="M17,13  c0.9-0.9,2.4-2,2.7-2.3c1.8-1.8,1.8-4.6,0-6.4c-1.8-1.8-4.6-1.8-6.4,0C13,4.6,12.2,5.8,11,7" fill="none" stroke="#000000" stroke-linejoin="round" stroke-miterlimit="10" stroke-width="2"/><line fill="none" stroke="#000000" stroke-linejoin="round" stroke-miterlimit="10" stroke-width="2" x1="6.1" x2="14.1" y1="9.9" y2="17.9"/><path d="M8.4,7.6  c0,0,3.7,3.7,6.2,6.2C18,17.2,18,19.5,18,22" fill="none" stroke="#000000" stroke-linejoin="round" stroke-miterlimit="10" stroke-width="2"/></svg>