<?xml version="1.0" encoding="UTF-8"?>
<svg width="22" height="40" version="1.1" viewBox="0 0 22 44" xmlns="http://www.w3.org/2000/svg">
    <path d="m11 43.451s1.1473-11.581 3.8497-16.5c2.7023-4.919 7.6143-8.7029 7.6993-14.85 0.085013-6.1473-4.9481-11.517-11.549-11.55-6.6008-0.033261-11.633 5.251-11.549 11.55 0.084514 6.2992 4.9207 9.9073 7.6993 14.85 2.7787 4.9429 3.8497 16.5 3.8497 16.5z" fill="#f35048" fill-rule="evenodd" stroke="#971d15" stroke-linejoin="round" stroke-width="1.1"/>
    <g transform="matrix(.31393 0 0 .31393 .79937 -314.35)">
        <g transform="matrix(1.2801 0 0 -1.6281 18.483 1032.6)">
            <path d="m0 0 2.719-8.728h-5.438zm-0.466 8.72-9.764-17.448h-2.13c-0.29 0-0.525-0.299-0.525-0.667 0-0.369 0.235-0.667 0.525-0.667h24.721c0.289 0 0.524 0.298 0.524 0.667 0 0.368-0.235 0.667-0.525 0.667h-2.13l-9.764 17.448-0.466 0.718z" fill="#ab0000"/>
        </g>
        <path d="m46.16 1032.6 3.4807 14.21h-6.9614zm-0.59655-14.197-12.499 28.408h-2.7267c-0.37124 0-0.67208 0.4867-0.67208 1.0859 0 0.6008 0.30083 1.086 0.67208 1.086h31.646c0.36996 0 0.6708-0.4852 0.6708-1.086 0-0.5992-0.30083-1.0859-0.67208-1.0859h-2.7267l-12.499-28.408-0.59655-1.1689z" fill="#b00003"/>
    </g>
</svg>
