<?xml version="1.0" encoding="UTF-8"?>
<svg width="22" height="40" version="1.1" viewBox="0 0 22 44" xmlns="http://www.w3.org/2000/svg">
    <g>
        <path d="m11 43.451s1.1473-11.581 3.8497-16.5c2.7023-4.919 7.6143-8.7029 7.6993-14.85 0.085013-6.1473-4.9481-11.517-11.549-11.55-6.6008-0.033261-11.633 5.251-11.549 11.55 0.084514 6.2992 4.9207 9.9073 7.6993 14.85 2.7787 4.9429 3.8497 16.5 3.8497 16.5z" fill="#f35048" fill-rule="evenodd" stroke="#971d15" stroke-linejoin="round" stroke-width="1.1"/>
        <g transform="matrix(.28692 0 0 .28692 1.3543 -280.56)" fill="#8a0400">
            <g transform="matrix(2.0432 0 0 -2.0432 42.789 1026.7)">
                <path d="m0 0 0.559 1.776 0.918-0.189-0.347-0.21c-0.559-0.337-0.835-0.995-0.685-1.63l0.302-1.28zm-3.915 8.024 0.458-0.44c0.187-0.181 0.438-0.279 0.694-0.279 0.058 0 0.117 5e-3 0.175 0.016l3.3 0.59 1.259-3.361-2.133 0.44c-0.755 0.156-1.503-0.284-1.735-1.019l-0.016-0.051zm10.723-4.976c-0.586 1.567-2.348 6.267-2.348 6.267-0.387 1.031-1.536 1.555-2.568 1.168l-1.673-0.627-2.658-0.476-2.76 2.649c-0.22 0.214-0.513 0.291-0.797 0.261l-2.74 5.616c-0.119 0.248-0.418 0.351-0.669 0.23-0.248-0.121-0.351-0.42-0.23-0.669l2.822-5.783c-0.15-0.368-0.076-0.806 0.229-1.098l0.576-0.553 3.659-7.499-0.887-2.815-1.259 0.861c-0.44 0.301-0.739 0.767-0.829 1.292l-0.971 5.635c-0.036 0.212-0.107 0.416-0.209 0.604l-1.888 3.488-1.675 6.09c-0.095 0.343-0.407 0.582-0.764 0.582h-3.483c-0.437 0-0.792-0.355-0.792-0.793v-28.435c0-0.437 0.355-0.792 0.792-0.792h16.583c0.284 0 0.547 0.153 0.688 0.4 0.141 0.246 0.139 0.55-6e-3 0.795l-2.846 4.817c-0.062 0.105-0.114 0.217-0.156 0.332l-1.109 3.067c0.318 0.181 0.572 0.474 0.691 0.85l0.031 0.101 4.98-10.206c0.086-0.178 0.264-0.281 0.45-0.281 0.073 0 0.148 0.016 0.219 0.051 0.248 0.121 0.351 0.42 0.23 0.669l-2.501 5.127c0.019-2e-3 0.038-0.01 0.058-0.01 0.114 0 0.231 0.013 0.346 0.04 0.807 0.191 1.307 0.999 1.116 1.806l-0.842 3.565 2.689 1.625c0.528 0.319 0.859 1.094 0.501 2.049" fill="#8a0400"/>
            </g>
            <g transform="matrix(2.0432 0 0 -2.0432 44.132 1004.7)">
                <path d="m0 0c1.24 0 2.246 1.005 2.246 2.246 0 1.24-1.006 2.246-2.246 2.246s-2.246-1.006-2.246-2.246c0-1.241 1.006-2.246 2.246-2.246" fill="#8a0400"/>
            </g>
        </g>
    </g>
</svg>
