<?xml version="1.0" encoding="UTF-8"?>
<svg width="22" height="40" version="1.1" viewBox="0 0 22 44" xmlns="http://www.w3.org/2000/svg">
    <g>
        <path d="m11 43.451s1.1473-11.581 3.8497-16.5c2.7023-4.919 7.6143-8.7029 7.6993-14.85 0.085013-6.1473-4.9481-11.517-11.549-11.55-6.6008-0.033261-11.633 5.251-11.549 11.55 0.084514 6.2992 4.9207 9.9073 7.6993 14.85 2.7787 4.9429 3.8497 16.5 3.8497 16.5z" fill="#f35048" fill-rule="evenodd" stroke="#971d15" stroke-linejoin="round" stroke-width="1.1"/>
        <g transform="matrix(.29633 0 0 .29633 .83178 -290.28)" fill="#930600">
            <g transform="matrix(2.3859 0 0 -2.3859 30.966 1019)">
                <path d="m0 0c-0.725 0.243-1.509-0.149-1.752-0.874-0.242-0.725 0.149-1.508 0.874-1.751s1.509 0.149 1.752 0.874c0.242 0.725-0.149 1.509-0.874 1.751" fill="#930600"/>
            </g>
            <g transform="matrix(2.3859 0 0 -2.3859 36.654 1020)">
                <path d="m0 0-0.68-2.148-1.103-0.422h-2.08l-1.104 0.422-0.679 2.148c-0.075 0.235-0.28 0.398-0.515 0.428l-1.114 4.09c1.447 0.305 2.937 0.46 4.452 0.46 1.514 0 3.004-0.155 4.452-0.46l-1.115-4.09c-0.232-0.029-0.439-0.189-0.514-0.428m-7.679 4.428 1.044-3.835-2.541 3.43c0.493 0.153 0.992 0.288 1.497 0.405m11.208-0.405-2.541-3.43 1.045 3.835c0.505-0.117 1.004-0.252 1.496-0.405m3.79 4.573c-0.121 0.463-0.431 0.82-0.822 0.95-2.961 0.982-6.096 1.48-9.32 1.48-3.223 0-6.359-0.498-9.32-1.48-0.392-0.13-0.701-0.487-0.822-0.95-0.121-0.462-0.036-0.965 0.225-1.337l0.493-0.702c0.508-0.725 1.017-1.448 1.525-2.172 0.277-0.394 0.707-0.577 1.125-0.489l2.812-3.795c-0.067-0.128-0.091-0.279-0.055-0.43l0.603-2.557c0.046-0.19 0.176-0.362 0.368-0.45l0.046-0.021 1.282-0.588v-2.893l-0.6-0.711-0.047-0.056c-0.119-0.142-0.187-0.328-0.179-0.528l0.125-2.873c0.018-0.382 0.326-0.696 0.714-0.711 0.411-0.016 0.756 0.304 0.772 0.714l0.097 2.503 0.774 0.778 0.773-0.778 0.097-2.503c0.016-0.382 0.322-0.697 0.711-0.714 0.41-0.018 0.758 0.3 0.775 0.711l0.125 2.873c8e-3 0.186-0.051 0.376-0.18 0.53l-0.046 0.054-0.475 0.564v3.04l1.282 0.588 0.049 0.023c0.178 0.082 0.317 0.243 0.365 0.448l0.603 2.557c0.035 0.15 0.012 0.301-0.056 0.43l2.812 3.795c0.068-0.015 0.138-0.023 0.206-0.023 0.35 0 0.688 0.183 0.919 0.512l2.019 2.874c0.261 0.372 0.345 0.875 0.225 1.337" fill="#930600"/>
            </g>
            <g transform="matrix(2.3859 0 0 -2.3859 43.829 1028.1)">
                <path d="m0 0c-0.237-0.238-0.611-0.238-0.848 0-0.228 0.237-0.228 0.614 0 0.848l3.557 3.56c0.109 0.11 0.264 0.178 0.433 0.178 0.17 0 0.321-0.068 0.434-0.178l3.557-3.56c0.238-0.234 0.238-0.611 0-0.848-0.238-0.238-0.611-0.238-0.849 0l-2.538 2.549v-9.042c0-0.332-0.272-0.596-0.604-0.596-0.331 0-0.593 0.264-0.593 0.596v9.039z" fill="#930600"/>
            </g>
        </g>
    </g>
</svg>
