<?xml version="1.0" encoding="UTF-8"?>
<svg width="22" height="40" version="1.1" viewBox="0 0 22 44" xmlns="http://www.w3.org/2000/svg">
    <g>
        <path d="m11 43.451s1.1473-11.581 3.8497-16.5c2.7023-4.919 7.6143-8.7029 7.6993-14.85 0.085013-6.1473-4.9481-11.517-11.549-11.55-6.6008-0.033261-11.633 5.251-11.549 11.55 0.084514 6.2992 4.9207 9.9073 7.6993 14.85 2.7787 4.9429 3.8497 16.5 3.8497 16.5z" fill="#f35048" fill-rule="evenodd" stroke="#971d15" stroke-linejoin="round" stroke-width="1.1"/>
        <path d="m8.9982 3.4395-3.4757 3.9469-0.39744-0.4343-0.81479 1.9427-1.2313 0.21003-0.2356 1.642-0.66564-0.21741-0.48522 1.955s-2.6217 3.622 6.118 4.5698c8.7397 0.9474 0.63087-1.4305 0.63087-1.4305s-6.9119-1.8344 1.069-3.0134c7.9806-1.1791 3.3351-1.3746 3.3351-1.3746l-0.30053-0.60998c0.68527 0.06264 5.5578 0.73172 3.4943 1.333s-3.0321 0.87934-3.0321 0.87934 3.2911 1.1503 4.6927 0.30004c0 0 1.4909-0.88494 2.1723-0.74774l0.46824-1.5788-1.3653 0.31819-0.0067-2.118-0.80136 0.86957-1.3497-3.9143-1.172 2.8727-0.60416-1.9157-1.6405 1.7969-0.62042-1.0648-0.65725 0.92115-1.0571-3.1159-0.59769 0.92933zm-0.16798 1.2253 1.1053 2.4902 0.92709-0.42577 0.8083 3.903-1.6224-0.75975-0.52204-2.4581-0.73208 1.4004-0.37172-1.1255-0.83535 1.9873 0.34059-2.6078-1.8628 2.3663-0.45767-0.55238-1.1177 1.3474 0.73479-2.1427 0.22582 0.36276 3.38-3.7855zm10.824 8.6925c-0.30108-0.04637-1.0286-0.05081-2.0278 0.65663-0.85543 0.60526-4.0105-0.16112-5.6552-0.84432 0 0-6.5572 0.39545-3.0825 1.2833 3.4743 0.88783 12.959 3.1069 10.919-1.0601 0 0-0.05296-0.02005-0.15332-0.03551z" fill="#9b0800"/>
    </g>
</svg>
