<?xml version="1.0" encoding="UTF-8"?>
<svg width="22" height="40" version="1.1" viewBox="0 0 22 44" xmlns="http://www.w3.org/2000/svg">
    <g>
        <path d="m11 43.451s1.1473-11.581 3.8497-16.5c2.7023-4.919 7.6143-8.7029 7.6993-14.85 0.085013-6.1473-4.9481-11.517-11.549-11.55-6.6008-0.033261-11.633 5.251-11.549 11.55 0.084514 6.2992 4.9207 9.9073 7.6993 14.85 2.7787 4.9429 3.8497 16.5 3.8497 16.5z" fill="#f35048" fill-rule="evenodd" stroke="#971d15" stroke-linejoin="round" stroke-width="1.1"/>
        <g transform="matrix(.29582 0 0 .29582 1.0131 -289.15)" fill="#930600">
            <g transform="matrix(2.5769 0 0 -2.5769 16.876 1010.5)" fill="#930600">
                <path d="m0 0c-0.265 0-0.479 0.214-0.479 0.479s0.214 0.479 0.479 0.479h12.542c0.264 0 0.479-0.214 0.479-0.479s-0.215-0.479-0.479-0.479zm0 3.875h12.542c0.264 0 0.479-0.215 0.479-0.479 0-0.265-0.215-0.479-0.479-0.479h-12.542c-0.265 0-0.479 0.214-0.479 0.479 0 0.264 0.214 0.479 0.479 0.479m15.826-6.207v8.333h-8.56v1.936h-1.999v-1.936h-8.551v-8.333h8.551v-11.159h-4.109v-1.999h10.217v1.999h-4.109v11.159z" fill="#930600"/>
            </g>
        </g>
    </g>
</svg>
