<?xml version="1.0" encoding="UTF-8"?>
<svg width="22" height="40" version="1.1" viewBox="0 0 22 44" xmlns="http://www.w3.org/2000/svg">
    <g>
        <path d="m11 43.451s1.1473-11.581 3.8497-16.5c2.7023-4.919 7.6143-8.7029 7.6993-14.85 0.085013-6.1473-4.9481-11.517-11.549-11.55-6.6008-0.033261-11.633 5.251-11.549 11.55 0.084514 6.2992 4.9207 9.9073 7.6993 14.85 2.7787 4.9429 3.8497 16.5 3.8497 16.5z" fill="#f35048" fill-rule="evenodd" stroke="#971d15" stroke-linejoin="round" stroke-width="1.1"/>
        <g transform="matrix(.30986 0 0 .30986 1.1044 -309.47)" fill="#9b0800">
            <g transform="matrix(1.4932 0 0 -1.9534 21.641 1025.5)">
                <path d="M 0,0 4.87,6.012 9.738,0 5.9,1.4 4.87,-2.639 3.839,1.4 Z" fill="#9b0800"/>
            </g>
            <g transform="matrix(1.4932 0 0 -1.9534 62.124 1049.5)">
                <path transform="matrix(.6697 0 0 -.62893 -41.604 31.537)" d="m28.906 14.984-26.744 35.16h59.961l-15.709-20.652-3.2344 4.2559zm-0.51367 3.4082 14.874 18.519 3.3411-4.3216 12.41 15.803-53.125 8.37e-4z" fill="#9b0800"/>
            </g>
            <g transform="matrix(1.4932 0 0 -1.9534 42.267 1036.3)">
                <path d="m0.33825-0.91327 2.786 3.439 2.784-3.439-2.195 0.801-0.589-2.311-0.59 2.311z" fill="#9b0800"/>
            </g>
        </g>
    </g>
</svg>
