<?xml version="1.0" encoding="UTF-8"?>
<svg width="22" height="40" version="1.1" viewBox="0 0 22 44" xmlns="http://www.w3.org/2000/svg" xmlns:osb="http://www.openswatchbook.org/uri/2009/osb">
    <g>
        <path d="m11 43.451s1.1473-11.581 3.8497-16.5c2.7023-4.919 7.6143-8.7029 7.6993-14.85 0.085013-6.1473-4.9481-11.517-11.549-11.55-6.6008-0.033261-11.633 5.251-11.549 11.55 0.084514 6.2992 4.9207 9.9073 7.6993 14.85 2.7787 4.9429 3.8497 16.5 3.8497 16.5z" fill="#f35048" fill-rule="evenodd" stroke="#971d15" stroke-linejoin="round" stroke-width="1.1"/>
        <g transform="matrix(.30892 0 0 .30892 .57249 -303.11)" fill="#890000">
            <g transform="matrix(2.4929 0 0 -2.4929 32.884 1031.5)">
                <path d="m0 0c-3.562 0-6.459 2.898-6.459 6.459 0 3.562 2.897 6.46 6.459 6.46s6.46-2.898 6.46-6.46c0-3.561-2.898-6.459-6.46-6.459m9.647 6.459c0 5.328-4.319 9.648-9.647 9.648s-9.647-4.32-9.647-9.648c0-3.776 2.171-7.046 5.332-8.63-0.884-0.892-1.495-2.057-1.691-3.359-0.034-0.226 0.032-0.455 0.181-0.629 0.149-0.172 0.366-0.272 0.595-0.272h10.461c0.228 0 0.445 0.1 0.593 0.273 0.149 0.173 0.216 0.402 0.182 0.628-0.196 1.302-0.806 2.467-1.691 3.359 3.162 1.584 5.332 4.854 5.332 8.63" fill="#890000"/>
            </g>
            <g transform="matrix(2.4929 0 0 -2.4929 32.884 1006.8)">
                <path d="m0 0c-1.889 0-3.426-1.537-3.426-3.426 0-1.888 1.537-3.425 3.426-3.425s3.426 1.537 3.426 3.425c0 1.889-1.537 3.426-3.426 3.426" fill="#890000"/>
            </g>
        </g>
    </g>
</svg>
