<?xml version="1.0" encoding="UTF-8"?>
<svg width="22" height="40" version="1.1" viewBox="0 0 22 44" xmlns="http://www.w3.org/2000/svg" xmlns:osb="http://www.openswatchbook.org/uri/2009/osb">
    <g>
        <path d="m11 43.451s1.1473-11.581 3.8497-16.5c2.7023-4.919 7.6143-8.7029 7.6993-14.85 0.085013-6.1473-4.9481-11.517-11.549-11.55-6.6008-0.033261-11.633 5.251-11.549 11.55 0.084514 6.2992 4.9207 9.9073 7.6993 14.85 2.7787 4.9429 3.8497 16.5 3.8497 16.5z" fill="#f35048" fill-rule="evenodd" stroke="#971d15" stroke-linejoin="round" stroke-width="1.1"/>
        <g transform="matrix(.29787 0 0 .29787 1.0981 -293.14)" fill="#910000">
            <g transform="matrix(2.637 0 0 -2.637 33.684 992.77)" fill="#910000">
                <path d="m0 0 5.45-5.072 5.452-5.074c0.221-0.211 0.235-0.557 0.032-0.788-0.112-0.116-0.262-0.172-0.41-0.172v-7e-3h-2.758v-9.957c0-0.308-0.252-0.56-0.559-0.56h-2.116c-0.308 0-0.551 0.252-0.551 0.56v8.767h-9.837v-8.767c0-0.308-0.251-0.56-0.56-0.56h-2.116c-0.307 0-0.552 0.252-0.552 0.56v9.957h-2.762c-0.308 0-0.553 0.25-0.553 0.557 0 0.175 0.08 0.332 0.206 0.434l5.426 5.05 5.452 5.081c0.211 0.197 0.543 0.197 0.756-9e-3" fill="#910000"/>
            </g>
        </g>
    </g>
</svg>
