<?xml version="1.0" encoding="UTF-8"?>
<svg width="22" height="40" version="1.1" viewBox="0 0 22 44" xmlns="http://www.w3.org/2000/svg">
    <g>
        <path d="m11 43.451s1.1473-11.581 3.8497-16.5c2.7023-4.919 7.6143-8.7029 7.6993-14.85 0.085013-6.1473-4.9481-11.517-11.549-11.55-6.6008-0.033261-11.633 5.251-11.549 11.55 0.084514 6.2992 4.9207 9.9073 7.6993 14.85 2.7787 4.9429 3.8497 16.5 3.8497 16.5z" fill="#f35048" fill-rule="evenodd" stroke="#971d15" stroke-linejoin="round" stroke-width="1.1"/>
        <g transform="matrix(.29437 0 0 .29437 1.3581 -291.02)" fill="#8c0300">
            <g transform="matrix(1.7581 0 0 -1.7581 27.438 1012.3)">
                <path d="m0 0v4.313l-14.694-5.031v-18.136h3.177v18.136l10.921 3.905v-3.333z" fill="#8c0300"/>
            </g>
            <g transform="matrix(1.7581 0 0 -1.7581 37.678 1004.7)">
                <path d="m0 0v-4.419l0.53-0.331v3.625l10.921-3.905v-18.137h3.177v18.137z" fill="#8c0300"/>
            </g>
            <g transform="matrix(1.7581 0 0 -1.7581 21.056 1014.6)">
                <path d="m0 0c0.795 0 1.554 0.264 2.17 0.742 0.616-0.478 1.376-0.742 2.169-0.742 0.794 0 1.554 0.264 2.17 0.742 0.616-0.478 1.375-0.742 2.169-0.742s1.554 0.264 2.17 0.742c0.616-0.478 1.375-0.742 2.17-0.742 0.394 0 0.714 0.32 0.714 0.714 0 0.395-0.32 0.715-0.714 0.715-0.627 0-1.218 0.275-1.623 0.757-0.136 0.162-0.335 0.255-0.547 0.255-0.211 0-0.411-0.093-0.546-0.255-0.406-0.482-0.997-0.757-1.624-0.757-0.626 0-1.217 0.275-1.621 0.757-0.136 0.162-0.336 0.255-0.547 0.255h-1e-3c-0.21 0-0.41-0.093-0.546-0.255-0.406-0.482-0.996-0.757-1.624-0.757-0.625 0-1.217 0.275-1.623 0.757-0.136 0.162-0.336 0.255-0.546 0.255-0.22 3e-3 -0.412-0.094-0.547-0.256-0.405-0.481-0.995-0.756-1.623-0.756-0.394 0-0.714-0.32-0.714-0.715 0-0.394 0.32-0.714 0.714-0.714" fill="#8c0300"/>
            </g>
            <g transform="matrix(1.7581 0 0 -1.7581 47.899 1023)">
                <path d="m0 0c-0.628 0-1.218 0.276-1.623 0.758-0.136 0.161-0.335 0.254-0.547 0.254-0.211 0-0.411-0.093-0.546-0.254-0.406-0.482-0.998-0.758-1.624-0.758s-1.217 0.276-1.621 0.758c-0.136 0.161-0.336 0.254-0.547 0.254h-1e-3c-0.028 0-0.053-0.014-0.08-0.017-0.028 3e-3 -0.053 0.017-0.081 0.017-0.211 0-0.411-0.093-0.546-0.254-0.388-0.461-0.947-0.726-1.544-0.749-0.594 0.023-1.154 0.288-1.542 0.749-0.136 0.161-0.336 0.254-0.546 0.254-0.029 1e-3 -0.053-0.014-0.081-0.017-0.027 3e-3 -0.051 0.017-0.079 0.017h-1e-3c-0.21 0-0.41-0.093-0.546-0.254-0.406-0.482-0.996-0.758-1.624-0.758-0.625 0-1.217 0.276-1.623 0.758-0.136 0.161-0.336 0.254-0.546 0.254-0.22 4e-3 -0.412-0.094-0.547-0.255-0.405-0.481-0.995-0.757-1.623-0.757-0.394 0-0.714-0.32-0.714-0.715 0-0.394 0.32-0.714 0.714-0.714 0.795 0 1.554 0.264 2.17 0.742 0.616-0.478 1.376-0.742 2.169-0.742 0.038 0 0.076 9e-3 0.114 0.01 0.016-1e-3 0.03-0.01 0.047-0.01 0.762 0 1.488 0.249 2.09 0.69 0.602-0.441 1.327-0.69 2.088-0.69 0.027 0 0.053 7e-3 0.08 7e-3 0.028 0 0.054-7e-3 0.081-7e-3 0.761 0 1.488 0.249 2.089 0.69 0.602-0.441 1.328-0.69 2.09-0.69 0.017 0 0.03 9e-3 0.047 0.01 0.038-1e-3 0.075-0.01 0.113-0.01 0.794 0 1.554 0.264 2.17 0.742 0.616-0.478 1.375-0.742 2.17-0.742 0.394 0 0.714 0.32 0.714 0.714 0 0.395-0.32 0.715-0.714 0.715" fill="#8c0300"/>
            </g>
            <g transform="matrix(1.7581 0 0 -1.7581 51.122 1035.6)">
                <path d="m0 0c-0.628 0-1.218 0.276-1.623 0.758-0.136 0.161-0.335 0.254-0.547 0.254-0.211 0-0.411-0.093-0.546-0.254-0.406-0.482-0.998-0.758-1.624-0.758s-1.217 0.276-1.621 0.758c-0.136 0.161-0.336 0.254-0.547 0.254h-1e-3c-0.21 0-0.41-0.093-0.546-0.254-0.406-0.482-0.996-0.758-1.624-0.758-0.625 0-1.217 0.276-1.623 0.758-0.136 0.161-0.336 0.254-0.546 0.254-0.013 1e-3 -0.024-7e-3 -0.036-8e-3 -0.013 1e-3 -0.024 8e-3 -0.036 8e-3 -0.211 0-0.411-0.093-0.546-0.254-0.406-0.482-0.998-0.758-1.624-0.758s-1.217 0.276-1.621 0.758c-0.136 0.161-0.336 0.254-0.547 0.254h-1e-3c-0.21 0-0.41-0.093-0.546-0.254-0.406-0.482-0.996-0.758-1.624-0.758-0.625 0-1.217 0.276-1.623 0.758-0.136 0.161-0.336 0.254-0.546 0.254-0.22 4e-3 -0.412-0.094-0.547-0.255-0.405-0.481-0.995-0.757-1.623-0.757-0.394 0-0.714-0.32-0.714-0.715 0-0.394 0.32-0.714 0.714-0.714 0.795 0 1.554 0.264 2.17 0.742 0.616-0.478 1.376-0.742 2.169-0.742 0.794 0 1.554 0.264 2.17 0.742 0.616-0.478 1.375-0.742 2.169-0.742 0.017 0 0.034 4e-3 0.051 5e-3 7e-3 -1e-3 0.014-5e-3 0.021-5e-3 0.78 0 1.524 0.257 2.134 0.718 0.61-0.461 1.354-0.718 2.134-0.718 7e-3 0 0.013 4e-3 0.021 5e-3 0.017-1e-3 0.033-5e-3 0.05-5e-3 0.794 0 1.554 0.264 2.17 0.742 0.616-0.478 1.375-0.742 2.169-0.742s1.554 0.264 2.17 0.742c0.616-0.478 1.375-0.742 2.17-0.742 0.394 0 0.714 0.32 0.714 0.714 0 0.395-0.32 0.715-0.714 0.715" fill="#8c0300"/>
            </g>
        </g>
    </g>
</svg>
