<?xml version="1.0" encoding="UTF-8"?>
<svg width="22" height="40" version="1.1" viewBox="0 0 22 44" xmlns="http://www.w3.org/2000/svg">
    <g>
        <path d="m11 43.451s1.1473-11.581 3.8497-16.5c2.7023-4.919 7.6143-8.7029 7.6993-14.85 0.085013-6.1473-4.9481-11.517-11.549-11.55-6.6008-0.033261-11.633 5.251-11.549 11.55 0.084514 6.2992 4.9207 9.9073 7.6993 14.85 2.7787 4.9429 3.8497 16.5 3.8497 16.5z" fill="#f35048" fill-rule="evenodd" stroke="#971d15" stroke-linejoin="round" stroke-width="1.1"/>
        <g transform="matrix(.25978 0 0 .25978 2.6106 -253.42)" fill="#8c0300">
            <g transform="matrix(2.5972 0 0 -2.5972 55.616 1042.1)">
                <path d="m0 0-4.896 2.036 4.901 2.023c0.753 0.312 1.114 1.176 0.804 1.931-0.313 0.754-1.179 1.115-1.932 0.802l-7.634-3.152-7.629 3.171c-0.754 0.313-1.62-0.043-1.933-0.798-0.313-0.754 0.044-1.62 0.797-1.933l4.898-2.035-4.903-2.023c-0.753-0.311-1.114-1.177-0.801-1.93 0.235-0.57 0.787-0.917 1.366-0.917 0.188 0 0.381 0.036 0.563 0.113l7.637 3.152 7.627-3.171c0.185-0.077 0.377-0.113 0.568-0.113 0.579 0 1.13 0.344 1.366 0.912 0.313 0.753-0.046 1.619-0.799 1.932" fill="#8c0300"/>
            </g>
            <g transform="matrix(2.5972 0 0 -2.5972 32.859 1027.7)">
                <path d="m0 0c3.457 0 6.258 2.802 6.258 6.255 0 0.869-0.395 2.014-0.985 3.241-0.076 0.159-0.257 0.248-0.432 0.209-0.174-0.038-0.301-0.192-0.303-0.37-0.025-1.3-0.376-2.182-0.807-2.779-0.05-0.07-0.144-0.091-0.221-0.051-0.074 0.041-0.108 0.133-0.077 0.212 0.303 0.799 0.157 1.985-1.388 3.654-1.448 1.562-1.805 2.792-1.737 3.689 0.014 0.176-0.084 0.344-0.248 0.416-0.163 0.075-0.356 0.036-0.479-0.091-1.477-1.535-3.296-4.044-2.769-6.585 0.022-0.108-0.034-0.217-0.137-0.257-0.101-0.042-0.217-3e-3 -0.277 0.091-0.375 0.606-0.719 1.513-0.592 2.709 0.02 0.192-0.098 0.375-0.286 0.436-0.185 0.057-0.389-0.023-0.484-0.196-0.678-1.224-1.289-2.761-1.289-4.328-2e-3 -3.453 2.798-6.255 6.253-6.255" fill="#8c0300"/>
            </g>
        </g>
    </g>
</svg>
