<?xml version="1.0" encoding="UTF-8"?>
<svg width="22" height="40" version="1.1" viewBox="0 0 22 44" xmlns="http://www.w3.org/2000/svg" xmlns:osb="http://www.openswatchbook.org/uri/2009/osb">
    <g>
        <path d="m11 43.451s1.1473-11.581 3.8497-16.5c2.7023-4.919 7.6143-8.7029 7.6993-14.85 0.085013-6.1473-4.9481-11.517-11.549-11.55-6.6008-0.033261-11.633 5.251-11.549 11.55 0.084514 6.2992 4.9207 9.9073 7.6993 14.85 2.7787 4.9429 3.8497 16.5 3.8497 16.5z" fill="#f35048" fill-rule="evenodd" stroke="#971d15" stroke-linejoin="round" stroke-width="1.1"/>
        <g transform="matrix(.32055 0 0 .32055 .54283 1.9281)" fill="#910000">
            <g fill="#910000">
                <path d="m32.232 5.9648c-14.916 0-27.018 12.102-27.018 27.018 0 14.916 12.102 27.018 27.018 27.018s27.018-12.102 27.018-27.018-12.102-27.018-27.018-27.018zm0 1c14.375-1e-7 26.018 11.642 26.018 26.018s-11.642 26.018-26.018 26.018-26.018-11.642-26.018-26.018 11.642-26.018 26.018-26.018zm-0.12029-6.697-3.2293 25.827l-7.6418-5.9296 6.4809 8.8922c-26.65 3.4802 0 0-26.65 3.4802 25.496 3.8859 0 0 25.496 3.8859l-5.8871 7.5387 8.0855-6.1582 3.4489 27.107 3.6169-27.64 8.5718 6.5638-5.6181-7.4916 24.776-3.3951-25.843-3.5833 7.2473-9.5578-9.0872 7.0053z" color="#000000" color-rendering="auto" fill="#910000" image-rendering="auto" shape-rendering="auto" solid-color="#000000" style="isolation:auto;mix-blend-mode:normal;text-decoration-color:#000000;text-decoration-line:none;text-decoration-style:solid;text-indent:0;text-transform:none;white-space:normal"/>
            </g>
        </g>
    </g>
</svg>
