<?xml version="1.0" encoding="UTF-8"?>
<svg width="22" height="40" version="1.1" viewBox="0 0 22 44" xmlns="http://www.w3.org/2000/svg">
    <g>
        <path d="m11 43.451s1.1473-11.581 3.8497-16.5c2.7023-4.919 7.6143-8.7029 7.6993-14.85 0.085013-6.1473-4.9481-11.517-11.549-11.55-6.6008-0.033261-11.633 5.251-11.549 11.55 0.084514 6.2992 4.9207 9.9073 7.6993 14.85 2.7787 4.9429 3.8497 16.5 3.8497 16.5z" fill="#f35048" fill-rule="evenodd" stroke="#971d15" stroke-linejoin="round" stroke-width="1.1"/>
        <g transform="matrix(.2801 0 0 .2801 1.8087 -276.14)" fill="#8c0300">
            <g transform="matrix(1.5346 0 0 -2.1806 64.026 1043.9)" fill="#8c0300">
                <path d="m0 0-10.52 12.989-2.167-2.677-9.559 11.801-17.91-22.113h11.484c1.937 6.045 4.884 9.91 8.188 9.91 3.303 0 6.25-3.864 8.187-9.909" fill="#8c0300"/>
            </g>
        </g>
    </g>
</svg>
