<?xml version="1.0" encoding="UTF-8"?>
<svg width="22" height="40" version="1.1" viewBox="0 0 22 44" xmlns="http://www.w3.org/2000/svg">
    <g>
        <path d="m11 43.451s1.1473-11.581 3.8497-16.5c2.7023-4.919 7.6143-8.7029 7.6993-14.85 0.085013-6.1473-4.9481-11.517-11.549-11.55-6.6008-0.033261-11.633 5.251-11.549 11.55 0.084514 6.2992 4.9207 9.9073 7.6993 14.85 2.7787 4.9429 3.8497 16.5 3.8497 16.5z" fill="#f35048" fill-rule="evenodd" stroke="#971d15" stroke-linejoin="round" stroke-width="1.1"/>
        <path d="m9.9753 2.6222-9.1287 12.001h20.467l-5.362-7.0494-1.104 1.4527zm-0.17534 1.1633 5.0767 6.3214 1.1407-1.4753 4.236 5.394h-8.6627l-0.75001-1.1413-2.026 0.474-1.034-0.51667-1.1207 0.60334-0.69001-0.60334 0.043333-1.2073-2.618 0.69134zm0.178 0.89934-2.4827 3.2634 1.9567-0.76001 0.526 2.192 0.52467-2.192 1.956 0.76001zm0.01467 0.55667 1.604 2.0527-1.3293-0.68401-0.296 1.566-0.27534-1.5447-1.1373 0.49134zm6.1354 4.3474-1.42 1.866 1.1193-0.43467 0.30067 1.2547 0.30067-1.2547 1.1187 0.43467zm-0.0014 0.33467c0 0.02287 0.91468 1.172 0.91468 1.172l-0.75001-0.30067-0.168 0.68534-0.108-0.68334-0.65334 0.21534s0.76467-1.1118 0.76467-1.0887zm-10.517 2.1974-0.091334 0.96001 1.0667 0.74667 1.2193-0.65534 1.036 0.59467 1.6913-0.42667 0.122 0.71601h-8.5333l1.1733-1.3713z" fill="#8c0002" stroke-width=".32954"/>
    </g>
</svg>
