<?xml version="1.0" encoding="UTF-8"?>
<svg width="22" height="40" version="1.1" viewBox="0 0 22 44" xmlns="http://www.w3.org/2000/svg">
    <defs>
        <clipPath id="clipPath434">
            <path d="m0 368h595.28v-368h-595.28v368z"/>
        </clipPath>
    </defs>
    <g>
        <path d="m11 43.451s1.1473-11.581 3.8497-16.5c2.7023-4.919 7.6143-8.7029 7.6993-14.85 0.085013-6.1473-4.9481-11.517-11.549-11.55-6.6008-0.033261-11.633 5.251-11.549 11.55 0.084514 6.2992 4.9207 9.9073 7.6993 14.85 2.7787 4.9429 3.8497 16.5 3.8497 16.5z" fill="#f35048" fill-rule="evenodd" stroke="#971d15" stroke-linejoin="round" stroke-width="1.1"/>
        <g transform="matrix(.26889 0 0 .26889 1.964 -266.31)" fill="#8c0300">
            <g transform="matrix(1.3966 0 0 -1.71 -286.96 1449.6)" clip-path="url(#clipPath434)" fill="#8c0300">
                <g transform="translate(205.28 235.33)" fill="#8c0300">
                    <path d="m0 0h-0.062c-0.462 0-0.838-0.375-0.838-0.838s0.376-0.838 0.838-0.838h47.056c0.463 0 0.838 0.375 0.838 0.838s-0.375 0.838-0.838 0.838h-2.286l-4.98 5.799-3.533 17.661c-0.05 0.254-0.215 0.47-0.446 0.586l-5.364 2.681c-0.214 0.107-0.464 0.117-0.686 0.029l-4.06-1.625-2.315 1.544c-0.214 0.143-0.484 0.179-0.729 0.098l-8.045-2.682c-0.278-0.093-0.487-0.324-0.552-0.609l-3.807-16.75-0.829-2.826-4.729-3.906h-2.76" fill="#8c0300"/>
                </g>
            </g>
        </g>
    </g>
</svg>
