<?xml version="1.0" encoding="UTF-8"?>
<svg width="22" height="40" version="1.1" viewBox="0 0 22 44" xmlns="http://www.w3.org/2000/svg" xmlns:osb="http://www.openswatchbook.org/uri/2009/osb">
    <path d="m11 43.451s1.1473-11.581 3.8497-16.5c2.7023-4.919 7.6143-8.7029 7.6993-14.85 0.085013-6.1473-4.9481-11.517-11.549-11.55-6.6008-0.033261-11.633 5.251-11.549 11.55 0.084514 6.2992 4.9207 9.9073 7.6993 14.85 2.7787 4.9429 3.8497 16.5 3.8497 16.5z" fill="#f35048" fill-rule="evenodd" stroke="#971d15" stroke-linejoin="round" stroke-width="1.1"/>
    <g transform="matrix(4.1575 0 0 4.1575 -2.5729 -1228)">
        <path d="m3.0903 298.31-0.10677-0.73878-0.41562 0.26776 0.5224-1.1389 0.52204 1.1389-0.41562-0.26776zm1.3823 0.25004-0.24436-0.157-0.062347 0.43368-0.062701-0.43368-0.24436 0.157 0.30706-0.66913zm0.65819 1.0269-0.96489-2.105-0.19921 0.43368-0.87639-1.9125-1.6431 3.5838z" fill="#910101"/>
    </g>
</svg>
