<?xml version="1.0" encoding="UTF-8"?>
<svg width="22" height="40" version="1.1" viewBox="0 0 22 44" xmlns="http://www.w3.org/2000/svg">
    <g>
        <path d="m11 43.451s1.1473-11.581 3.8497-16.5c2.7023-4.919 7.6143-8.7029 7.6993-14.85 0.085013-6.1473-4.9481-11.517-11.549-11.55-6.6008-0.033261-11.633 5.251-11.549 11.55 0.084514 6.2992 4.9207 9.9073 7.6993 14.85 2.7787 4.9429 3.8497 16.5 3.8497 16.5z" fill="#f35048" fill-rule="evenodd" stroke="#971d15" stroke-linejoin="round" stroke-width="1.1"/>
        <g transform="matrix(.24636 0 0 .24636 2.7955 -239.44)" fill="#910000">
            <g transform="matrix(2.147 0 0 -2.6322 61.124 1049.4)" fill="#910000">
                <path d="m0 0h-26.55v21.714h7.351l2.95-2.515-0.629-3.7 2.684-1.088-0.604-3.24 0.991-1.16-0.798-6.795 2.297 4.618-0.483 3.023 3.192 4.642-1.016 2.95 1.572 3.265h9.043z" fill="#910000"/>
            </g>
        </g>
    </g>
</svg>
