<?xml version="1.0" encoding="UTF-8"?>
<svg width="22" height="40" version="1.1" viewBox="0 0 22 44" xmlns="http://www.w3.org/2000/svg" xmlns:osb="http://www.openswatchbook.org/uri/2009/osb">
    <g>
        <path d="m11 43.451s1.1473-11.581 3.8497-16.5c2.7023-4.919 7.6143-8.7029 7.6993-14.85 0.085013-6.1473-4.9481-11.517-11.549-11.55-6.6008-0.033261-11.633 5.251-11.549 11.55 0.084514 6.2992 4.9207 9.9073 7.6993 14.85 2.7787 4.9429 3.8497 16.5 3.8497 16.5z" fill="#f35048" fill-rule="evenodd" stroke="#971d15" stroke-linejoin="round" stroke-width="1.1"/>
        <path d="m8.0457 16.427c0.37682 0.18694 0.70222 0.34783 1.4014 0.35793 0.69845 0.01011 1.0279-0.14133 1.409-0.31733 0.41171-0.18971 0.87814-0.4048 1.7591-0.39208 0.88097 0.01273 1.3422 0.24123 1.7493 0.44277 0.37682 0.18694 0.70222 0.34826 1.4011 0.35836 0.26896 0.0039 0.4834-0.01662 0.66676-0.05258 2e-3 -0.0073 0.0036-0.01411 0.0061-0.02136 0.20173-0.58406 0.05889-1.0096-0.09638-1.2642-0.22002-0.36103-0.5978-0.59733-0.96246-0.6026-0.30176-0.0043-0.59529 0.1124-0.82631 0.32918-0.08976 0.08452-0.20679 0.12531-0.32398 0.11374-0.11722-0.01156-0.22532-0.07491-0.30056-0.17554-0.27436-0.36739-0.67749-0.58175-1.1058-0.58794-0.24619-0.0036-0.49089 0.06284-0.70698 0.19145-0.16556 0.09844-0.36901 0.06976-0.50746-0.07126-0.36652-0.3743-0.84265-0.58414-1.3401-0.59132-0.48506-0.0071-0.95656 0.18055-1.3281 0.52831-0.14126 0.13269-0.34181 0.15339-0.50272 0.05152-0.2226-0.14009-0.47643-0.21627-0.73382-0.21999-0.78296-0.01131-1.4374 0.63701-1.536 1.4796 0.042074-2.45e-4 0.084529-5.27e-4 0.12852 1.17e-4 0.88097 0.01273 1.3422 0.24166 1.7493 0.4432m4.2167-10.151 0.26383 7.3762c0.10205-0.01354 0.20518-0.0202 0.30821-0.01872 0.2898 0.0042 0.57196 0.0679 0.83459 0.18412l-0.57388-7.5296zm-0.88445-0.012782-0.68919-0.00996-0.38143 6.9099c0.46995 0.01152 0.92569 0.1494 1.3315 0.39684l-0.26089-7.2968zm-3.1297 7.3336c0.12158 0.03222 0.24073 0.0747 0.35629 0.12744 0.24961-0.18948 0.523-0.33313 0.8101-0.4281l0.3897-7.0557-0.83428-0.012053zm11.122 3.0673c-0.0033 0.27156-0.2037 0.48835-0.44758 0.48483-0.69884-0.01011-1.0279 0.14176-1.409 0.31733-0.41172 0.19014-0.87814 0.40523-1.7591 0.3925-0.88059-0.01272-1.3422-0.24123-1.7493-0.4432-0.37682-0.18652-0.70222-0.34783-1.4011-0.35793-0.69884-0.01011-1.0279 0.14176-1.409 0.31733-0.41172 0.19014-0.87853 0.40523-1.7591 0.3925-0.88097-0.012732-1.3422-0.24123-1.7497-0.4432-0.37682-0.18652-0.70222-0.34783-1.4011-0.35793-0.69884-0.010108-1.0279 0.14176-1.409 0.31733-0.41171 0.19014-0.87853 0.40523-1.7595 0.3925-0.24388-0.00358-0.43888-0.22646-0.43571-0.49759l0.14154-10.522c0.0032-0.27156 0.2037-0.48835 0.44758-0.48483l4.8104 0.069508 0.055204-0.56258c0.024554-0.25151 0.21704-0.44096 0.44471-0.43767l4.927 0.071189c0.22729 0.00332 0.41528 0.1978 0.43473 0.44952l0.0428 0.56486 4.7568 0.068732c0.24426 0.00356 0.43927 0.22603 0.43609 0.4976l0.19221 9.7716" fill="#890000"/>
    </g>
</svg>
