<?xml version="1.0" encoding="UTF-8"?>
<svg width="22" height="40" version="1.1" viewBox="0 0 22 44" xmlns="http://www.w3.org/2000/svg">
    <g>
        <path d="m11 43.451s1.1473-11.581 3.8497-16.5c2.7023-4.919 7.6143-8.7029 7.6993-14.85 0.085013-6.1473-4.9481-11.517-11.549-11.55-6.6008-0.033261-11.633 5.251-11.549 11.55 0.084514 6.2992 4.9207 9.9073 7.6993 14.85 2.7787 4.9429 3.8497 16.5 3.8497 16.5z" fill="#f35048" fill-rule="evenodd" stroke="#971d15" stroke-linejoin="round" stroke-width="1.1"/>
        <g transform="matrix(.28124 0 0 .28124 1.7515 -276.27)" fill="#9b0800">
            <g transform="matrix(2.7507 0 0 -2.7507 35.42 1013.8)">
                <path d="m0 0 2.649 2.649 2.647-2.649zm-3.239 3.95 2.28 2.28 2.28-2.28-2.28-2.278zm-3.977-3.95 2.649 2.649 2.649-2.649zm16.882-1.737-9.961 9.959c-0.353 0.353-0.975 0.353-1.328 0l-9.961-9.959c-0.364-0.367-0.364-0.961 0-1.328 0.367-0.366 0.961-0.381 1.328-0.013l1.163 1.146h16.27l1.161-1.146c0.183-0.184 0.423-0.27 0.664-0.27 0.239 0 0.48 0.095 0.664 0.279 0.367 0.366 0.367 0.965 0 1.332" fill="#9b0800"/>
            </g>
            <g transform="matrix(2.7507 0 0 -2.7507 23.113 1029.9)">
                <path d="m0 0c0 0.369 0.297 0.669 0.664 0.669h1.472c0.367 0 0.664-0.3 0.664-0.669v-3.346c0-0.367-0.297-0.666-0.664-0.666h-1.472c-0.367 0-0.664 0.297-0.664 0.666zm4.217 2e-3c0 0.367 0.299 0.667 0.666 0.667h1.497c0.367 0 0.667-0.3 0.667-0.667v-3.348c0-0.367-0.3-0.666-0.667-0.666h-1.497c-0.367 0-0.666 0.297-0.666 0.666zm-8.462-6.282c0-0.569 0.474-1.025 1.041-1.025h13.439c0.567 0 1.028 0.456 1.028 1.025v9.289h-15.508z" fill="#9b0800"/>
            </g>
        </g>
    </g>
</svg>
