<?xml version="1.0" encoding="UTF-8"?>
<svg width="22" height="40" version="1.1" viewBox="0 0 22 44" xmlns="http://www.w3.org/2000/svg" xmlns:osb="http://www.openswatchbook.org/uri/2009/osb">
    <defs>
        <clipPath id="clipPath286-0">
            <path d="m513.74 235.44h21.56v25.556h-21.56v-25.556z"/>
        </clipPath>
    </defs>
    <g>
        <path d="m11 43.451s1.1473-11.581 3.8497-16.5c2.7023-4.919 7.6143-8.7029 7.6993-14.85 0.085013-6.1473-4.9481-11.517-11.549-11.55-6.6008-0.033261-11.633 5.251-11.549 11.55 0.084514 6.2992 4.9207 9.9073 7.6993 14.85 2.7787 4.9429 3.8497 16.5 3.8497 16.5z" fill="#f35048" fill-rule="evenodd" stroke="#971d15" stroke-linejoin="round" stroke-width="1.1"/>
        <g transform="matrix(.26296 0 0 .26296 1.9694 -256.06)" fill="#890000">
            <g transform="matrix(2.3872 0 0 -2.3872 -1219.5 1613.4)" fill="#890000">
                <g clip-path="url(#clipPath286-0)" fill="#890000">
                    <g transform="translate(534.8 248.61)">
                        <path d="m0 0v4.338c0 0.339-0.278 0.618-0.62 0.618h-5.999c-0.562 0.943-1.461 1.66-2.532 1.981 0.284 0.157 0.478 0.46 0.478 0.807 0 0.515-0.417 0.929-0.929 0.929h-0.312v1.241h2.79c0.514 0 0.928 0.414 0.928 0.928s-0.414 0.929-0.928 0.929h-2.79c0 0.342-0.205 0.62-0.616 0.62-0.415 0-0.62-0.278-0.62-0.62h-2.79c-0.511 0-0.929-0.415-0.929-0.929s0.418-0.928 0.929-0.928h2.79v-1.241h-0.313c-0.511 0-0.928-0.414-0.928-0.929 0-0.381 0.23-0.704 0.557-0.849-0.769-0.257-1.443-0.717-1.96-1.32h-4.793v1.861c0 0.684-0.553 1.237-1.236 1.237-0.687 0-1.241-0.553-1.241-1.237v-9.293c0-0.687 0.554-1.241 1.241-1.241 0.683 0 1.236 0.554 1.236 1.241v2.477h4.23c0.744-1.412 2.223-2.374 3.929-2.374 2.169 0 3.972 1.554 4.359 3.612h1.734c0.339 0 0.617-0.279 0.617-0.617v-1.241c-0.339 0-0.617-0.278-0.617-0.62v-1.237c0-0.342 0.278-0.62 0.617-0.62h3.718c0.342 0 0.62 0.278 0.62 0.62v1.237c0 0.342-0.278 0.62-0.62 0.62" fill="#890000"/>
                    </g>
                    <g transform="translate(530.24 238.66)">
                        <path d="m0 0c0-1.434 1.162-2.596 2.595-2.596 1.431 0 2.593 1.162 2.593 2.596 0 1.43-2.596 5.152-2.596 5.152s-2.592-3.722-2.592-5.152" fill="#890000"/>
                    </g>
                </g>
            </g>
        </g>
    </g>
</svg>
