<?xml version="1.0" encoding="UTF-8"?>
<svg width="22" height="40" version="1.1" viewBox="0 0 22 44" xmlns="http://www.w3.org/2000/svg">
    <g>
        <path d="m11 43.451s1.1473-11.581 3.8497-16.5c2.7023-4.919 7.6143-8.7029 7.6993-14.85 0.085013-6.1473-4.9481-11.517-11.549-11.55-6.6008-0.033261-11.633 5.251-11.549 11.55 0.084514 6.2992 4.9207 9.9073 7.6993 14.85 2.7787 4.9429 3.8497 16.5 3.8497 16.5z" fill="#f35048" fill-rule="evenodd" stroke="#971d15" stroke-linejoin="round" stroke-width="1.1"/>
        <path d="m7.5403 3.5669c0.55728-0.01559 0.65402 0.51226 0.47705 1.0327-0.02481 0.07349-0.05288 0.14181-0.08437 0.20689-0.78102-0.84859-2.2222-0.53478-2.5551 0.57099l-0.092065 0.30389c-0.2636-0.11602-0.45547-0.32161-0.49003-0.65367-0.11476-1.0968 1.019-0.64443 1.6819-1.0511 0.46117-0.28315 0.80935-0.40256 1.0627-0.40964zm2.964 1.2659c0.87692-0.03463 1.6162 0.63384 1.6515 1.4927 0.03549 0.86192-0.65031 1.5835-1.5234 1.618-0.87692 0.03463-1.6174-0.63317-1.6528-1.4926-0.03536-0.85882 0.64782-1.5834 1.5247-1.6181zm3.8347-0.09862c0.29834 0.0098 0.57696 0.19079 0.69142 0.48096l1.3721 3.4941c0.18808 0.47972-0.16042 0.99996-0.68481 1.0207l-2.9661 0.11712 0.1603 3.8938 3.1711 0.68139c0.52165 0.11261 0.85028 0.64718 0.67602 1.1641-0.36788 1.086-0.26173 0.77256-1.1148 3.2927-0.15964 0.47234-0.67953 0.72891-1.1625 0.57198-0.48231-0.15631-0.74493-0.66549-0.58468-1.1385 0.255-0.75376 0.49947-1.4743 0.79338-2.3436l-1.9077-0.41004-2.0855 0.08235c-0.68222 2.2277-0.56335 1.8401-0.82219 2.6851 0.22593 0.86121 0.90216 3.4335 1.1444 4.3536 0.12616 0.48216-0.17049 0.97384-0.66216 1.0974-0.49165 0.12419-0.99367-0.16514-1.1205-0.64786-0.26857-1.0207-0.94045-3.5766-1.2084-4.5966-0.04198-0.15888-0.03861-0.32636 0.01-0.48321 0.31122-1.0176 0.71288-2.3296 0.86852-2.8377l-0.21374-5.1919-2.9233 0.11543c-0.52375 0.02069-0.91448-0.46977-0.76581-0.96275 0.10456-0.34995 0.97403-3.2391 1.0798-3.5909 0.11299-0.37572 0.49978-0.59879 0.88123-0.52525 0.44777 0.08584 0.71684 0.52845 0.58989 0.94934-0.18144 0.60395-0.59333 1.9732-0.7782 2.586l7.8104-0.32113-0.98826-2.5163c-0.15201-0.38757 0.0456-0.82213 0.44068-0.97095 0.09846-0.03704 0.1999-0.05261 0.29935-0.04936zm2.0889 5.9951c0.56744-0.05092 1.6581 0.352 1.2694 1.4091-0.19288 0.52573-0.56542 0.27312-1.3461 0.31015-1.7406 0.0836-1.6353-0.74352-1.0322-1.2811 0.30156-0.26848 0.61523-0.3939 1.1089-0.43818zm-10.942 7.1661c0.4054-0.03646 1.441 0.27499 1.8341 0.83088 0.11562 0.16463 0.17454 0.35089 0.14562 0.55531-0.01031 0.0723-0.03071 0.14572-0.06485 0.2233-0.44817 1.0112-1.2108 0.07342-1.9915 0.11044-1.7406 0.08299-1.6353-0.74352-1.0322-1.2811 0.30153-0.2691 0.6152-0.39454 1.1089-0.43882zm8.1107 1.8445c0.18073 0.17817 0.40269 0.31413 0.65349 0.39595 0.5888 0.19118 1.23 0.04495 1.677-0.38174 0.93423 0.02013 0.88328 0.67226 0.46841 1.1857-0.2529 0.31304-0.541 0.48656-1.0213 0.60902-0.55108 0.14075-2.4358-0.19312-2.1566-1.2825 0.079-0.3099 0.21217-0.46156 0.37909-0.52641z" fill="#8a0400"/>
    </g>
</svg>
