<?xml version="1.0" encoding="UTF-8"?>
<svg width="22" height="40" version="1.1" viewBox="0 0 22 44" xmlns="http://www.w3.org/2000/svg">
    <g>
        <path d="m11 43.451s1.1473-11.581 3.8497-16.5c2.7023-4.919 7.6143-8.7029 7.6993-14.85 0.085013-6.1473-4.9481-11.517-11.549-11.55-6.6008-0.033261-11.633 5.251-11.549 11.55 0.084514 6.2992 4.9207 9.9073 7.6993 14.85 2.7787 4.9429 3.8497 16.5 3.8497 16.5z" fill="#f35048" fill-rule="evenodd" stroke="#971d15" stroke-linejoin="round" stroke-width="1.1"/>
        <g transform="matrix(.26713 0 0 .26713 2.0562 -261.46)" fill="#9b0800">
            <g transform="matrix(2.5247 0 0 -2.5247 54.586 1013.9)">
                <path d="m0 0h-17.355c-0.747 0-1.352-0.605-1.352-1.352s0.605-1.352 1.352-1.352h17.355c0.747 0 1.352 0.605 1.352 1.352s-0.605 1.352-1.352 1.352" fill="#9b0800"/>
            </g>
            <g transform="matrix(2.5247 0 0 -2.5247 54.586 1023.4)">
                <path d="m0 0h-17.355c-0.747 0-1.352-0.605-1.352-1.352s0.605-1.352 1.352-1.352h17.355c0.747 0 1.352 0.605 1.352 1.352s-0.605 1.352-1.352 1.352" fill="#9b0800"/>
            </g>
            <g transform="matrix(2.5247 0 0 -2.5247 54.586 1032.9)">
                <path d="m0 0h-6.001v-2.704h6.001c0.747 0 1.352 0.605 1.352 1.352s-0.605 1.352-1.352 1.352" fill="#9b0800"/>
            </g>
            <g transform="matrix(2.5247 0 0 -2.5247 7.3558 1036.3)">
                <path d="m0 0c0-0.747 0.605-1.352 1.352-1.352h6.001v2.704h-6.001c-0.747 0-1.352-0.605-1.352-1.352" fill="#9b0800"/>
            </g>
            <g transform="matrix(2.5247 0 0 -2.5247 10.769 1042.4)">
                <path d="m0 0c-0.747 0-1.352-0.605-1.352-1.352s0.605-1.352 1.352-1.352h6.001v2.704z" fill="#9b0800"/>
            </g>
            <g transform="matrix(2.5247 0 0 -2.5247 54.586 1042.4)">
                <path d="m0 0h-6.001v-2.704h6.001c0.747 0 1.352 0.605 1.352 1.352s-0.605 1.352-1.352 1.352" fill="#9b0800"/>
            </g>
            <g transform="matrix(2.5247 0 0 -2.5247 59.78 1008.4)">
                <path d="m0 0-10.375 6.315c-0.221 0.135-0.499 0.135-0.72 0l-10.374-6.315c-0.266-0.162-0.391-0.48-0.307-0.779s0.356-0.505 0.667-0.505h20.749c0.31 0 0.583 0.206 0.667 0.505s-0.042 0.617-0.307 0.779" fill="#9b0800"/>
            </g>
        </g>
    </g>
</svg>
