<?xml version="1.0" encoding="UTF-8"?>
<svg width="22" height="40" version="1.1" viewBox="0 0 22 44" xmlns="http://www.w3.org/2000/svg">
    <g>
        <path d="m11 43.451s1.1473-11.581 3.8497-16.5c2.7023-4.919 7.6143-8.7029 7.6993-14.85 0.085013-6.1473-4.9481-11.517-11.549-11.55-6.6008-0.033261-11.633 5.251-11.549 11.55 0.084514 6.2992 4.9207 9.9073 7.6993 14.85 2.7787 4.9429 3.8497 16.5 3.8497 16.5z" fill="#f35048" fill-rule="evenodd" stroke="#971d15" stroke-linejoin="round" stroke-width="1.1"/>
        <g transform="matrix(.24989 0 0 .24989 2.3998 -243.98)" fill="#8c0300">
            <g transform="matrix(1.9331 0 0 -1.9331 62.851 1049.8)" fill="#8c0300">
                <path d="m0 0v14.46c0 0.052-7e-3 0.104-0.023 0.154l-1.434 4.292-0.958 7.186c-0.03 0.24-0.235 0.419-0.478 0.419h-1.445c-0.169 0-0.327-0.09-0.414-0.236l-1.445-2.41c-0.04-0.063-0.061-0.136-0.068-0.211l-0.466-6.539-2.245-1.795c-0.116-0.093-0.182-0.231-0.182-0.377v-9.344l-3.488-1.744h-3.926l-1.268 2.54-0.475 7.614c-0.01 0.145-0.085 0.277-0.203 0.362l-3.173 2.264v4.09c0 0.192-0.11 0.363-0.284 0.441l-4.053 1.8v4.028c0 0.169-0.089 0.324-0.233 0.411l-2.411 1.448c-0.162 0.094-0.359 0.089-0.515-0.015l-1.448-0.962c-0.133-0.09-0.213-0.24-0.213-0.403v-27.473z" fill="#8c0300"/>
            </g>
        </g>
    </g>
</svg>
