<?xml version="1.0" encoding="UTF-8"?>
<svg width="22" height="40" version="1.1" viewBox="0 0 22 44" xmlns="http://www.w3.org/2000/svg" xmlns:osb="http://www.openswatchbook.org/uri/2009/osb">
    <g>
        <path d="m11 43.451s1.1473-11.581 3.8497-16.5c2.7023-4.919 7.6143-8.7029 7.6993-14.85 0.085013-6.1473-4.9481-11.517-11.549-11.55-6.6008-0.033261-11.633 5.251-11.549 11.55 0.084514 6.2992 4.9207 9.9073 7.6993 14.85 2.7787 4.9429 3.8497 16.5 3.8497 16.5z" fill="#f35048" fill-rule="evenodd" stroke="#971d15" stroke-linejoin="round" stroke-width="1.1"/>
        <g transform="matrix(.36565 0 0 .36565 -1.1768 -359.77)" fill="#890000">
            <g transform="matrix(2.3381 0 0 -2.3381 32.984 1047.1)">
                <path d="m0 0c-1.77 0-3.199 1.434-3.199 3.199 0 1.184 0.64 2.219 1.597 2.774v14.824c0 0.887 0.719 1.601 1.602 1.601 0.887 0 1.597-0.714 1.597-1.601v-14.824c0.957-0.555 1.602-1.586 1.602-2.774 0-1.765-1.434-3.199-3.199-3.199m3.199 6.777v14.02c0 1.769-1.438 3.203-3.199 3.203-1.77 0-3.199-1.43-3.199-3.203v-14.02c-0.985-0.879-1.602-2.156-1.602-3.578 0-2.648 2.148-4.801 4.801-4.801 2.648 0 4.801 2.153 4.801 4.801 0 1.422-0.618 2.699-1.602 3.578" fill="#890000"/>
            </g>
            <g transform="matrix(2.3381 0 0 -2.3381 34.819 1034.3)">
                <path d="m0 0c0.012 0.043 0.016 0.086 0.016 0.133v7.996c0 0.441-0.356 0.8-0.801 0.8-0.442 0-0.801-0.363-0.801-0.8v-7.996c0-0.047 4e-3 -0.09 0.012-0.133-0.938-0.328-1.614-1.219-1.614-2.27 0-1.324 1.075-2.398 2.403-2.398 1.324 0 2.398 1.074 2.398 2.398 0 1.051-0.672 1.942-1.613 2.27" fill="#890000"/>
            </g>
            <g transform="matrix(2.3381 0 0 -2.3381 51.835 1001.5)">
                <path d="m0 0h-2.5c-0.242 0-0.438 0.196-0.438 0.437 0 0.242 0.196 0.438 0.438 0.438h2.5c0.242 0 0.437-0.196 0.437-0.438 0-0.241-0.195-0.437-0.437-0.437" fill="#890000"/>
            </g>
            <g transform="matrix(2.3381 0 0 -2.3381 51.835 1006.1)">
                <path d="m0 0h-2.5c-0.242 0-0.438 0.196-0.438 0.437 0 0.242 0.196 0.438 0.438 0.438h2.5c0.242 0 0.437-0.196 0.437-0.438 0-0.241-0.195-0.437-0.437-0.437" fill="#890000"/>
            </g>
            <g transform="matrix(2.3381 0 0 -2.3381 51.835 1010.8)">
                <path d="m0 0h-2.5c-0.242 0-0.438 0.196-0.438 0.437 0 0.242 0.196 0.438 0.438 0.438h2.5c0.242 0 0.437-0.196 0.437-0.438 0-0.241-0.195-0.437-0.437-0.437" fill="#890000"/>
            </g>
            <g transform="matrix(2.3381 0 0 -2.3381 51.835 1015.5)">
                <path d="m0 0h-2.5c-0.242 0-0.438 0.196-0.438 0.437 0 0.242 0.196 0.438 0.438 0.438h2.5c0.242 0 0.437-0.196 0.437-0.438 0-0.241-0.195-0.437-0.437-0.437" fill="#890000"/>
            </g>
            <g transform="matrix(2.3381 0 0 -2.3381 51.835 1020.2)">
                <path d="m0 0h-2.5c-0.242 0-0.438 0.196-0.438 0.437 0 0.242 0.196 0.438 0.438 0.438h2.5c0.242 0 0.437-0.196 0.437-0.438 0-0.241-0.195-0.437-0.437-0.437" fill="#890000"/>
            </g>
        </g>
    </g>
</svg>
