<?xml version="1.0" encoding="UTF-8"?>
<svg width="22" height="40" version="1.1" viewBox="0 0 22 44" xmlns="http://www.w3.org/2000/svg">
    <g>
        <path d="m11 43.451s1.1473-11.581 3.8497-16.5c2.7023-4.919 7.6143-8.7029 7.6993-14.85 0.085013-6.1473-4.9481-11.517-11.549-11.55-6.6008-0.033261-11.633 5.251-11.549 11.55 0.084514 6.2992 4.9207 9.9073 7.6993 14.85 2.7787 4.9429 3.8497 16.5 3.8497 16.5z" fill="#f35048" fill-rule="evenodd" stroke="#971d15" stroke-linejoin="round" stroke-width="1.1"/>
        <path d="m5.1272 12.435c0.3382-0.0032 0.66023-0.14525 0.92073-0.39945 0.2636 0.24926 0.58776 0.38524 0.92553 0.38206 0.33777-0.0032 0.6598-0.14525 0.9203-0.39944 0.2636 0.24926 0.58776 0.38524 0.92553 0.38206 0.33735-0.0032 0.6598-0.14525 0.9203-0.39944 0.2636 0.24926 0.58733 0.38525 0.92553 0.38206 0.16761-0.0016 0.3027-0.17138 0.30143-0.37887-0.0013-0.20802-0.13844-0.37525-0.30605-0.37368-0.26715 0.0026-0.51903-0.13994-0.69288-0.39163-0.057954-0.08478-0.13995-0.13508-0.23352-0.13262-0.089336 8.24e-4 -0.17412 0.05062-0.23145 0.13648-0.17115 0.25546-0.42211 0.40265-0.68798 0.40516-0.26715 0.0026-0.51903-0.13994-0.69331-0.39215-0.05838-0.08477-0.14376-0.13294-0.2331-0.1321l-4.157e-4 4e-6c-0.089761 8.25e-4 -0.17412 0.05062-0.23145 0.13648-0.17073 0.25546-0.42125 0.40264-0.68756 0.40515-0.2663 0.0026-0.51903-0.13994-0.69331-0.39215-0.057955-0.08478-0.14334-0.13295-0.2331-0.1321-0.090186 8.26e-4 -0.17454 0.05062-0.23187 0.13648-0.17073 0.25546-0.42083 0.40264-0.68798 0.40516-0.16761 0.0015-0.3027 0.17138-0.30143 0.3794 0.00127 0.20749 0.13844 0.37473 0.30605 0.37315m3.4814 4.0267c0.3382-0.0032 0.66023-0.14526 0.92073-0.39892 0.26359 0.24873 0.58776 0.38472 0.92553 0.38153 0.33777-0.0032 0.6598-0.14525 0.92031-0.39892 0.2636 0.24873 0.58776 0.38472 0.92553 0.38154 0.33735-0.0032 0.6598-0.14525 0.92031-0.39892 0.26359 0.24873 0.58733 0.38472 0.92553 0.38154 0.16761-0.0016 0.30271-0.17085 0.30143-0.37834-0.0013-0.20854-0.13844-0.37526-0.30605-0.37368-0.26716 0.0026-0.51904-0.14047-0.69288-0.39215-0.05795-0.08425-0.13995-0.13509-0.23352-0.1321-0.08934 8.24e-4 -0.17412 0.0501-0.23145 0.13595-0.17115 0.25546-0.4221 0.40318-0.68798 0.40568-0.26716 0.0026-0.51904-0.14047-0.69331-0.39268-0.05838-0.08477-0.14376-0.13242-0.23309-0.13158l-4.16e-4 4e-6c-0.08976 8.25e-4 -0.17412 0.0501-0.23145 0.13595-0.17073 0.25546-0.42125 0.40317-0.68755 0.40568-0.2663 0.0026-0.51904-0.14047-0.69331-0.39268-0.057954-0.08478-0.14333-0.13242-0.23309-0.13158-0.090186 8.25e-4 -0.17454 0.05009-0.23188 0.13595-0.17073 0.25546-0.42083 0.40317-0.68798 0.40568-0.16761 0.0016-0.30271 0.17085-0.30143 0.3794 0.00127 0.20749 0.13844 0.3742 0.30605 0.37262m6.8418-6.8404c0.26359 0.24873 0.58733 0.38472 0.92553 0.38154 0.16761-0.0015 0.30271-0.17085 0.30143-0.37834-0.0013-0.20854-0.13844-0.37525-0.30605-0.37368-0.26673 0.00255-0.51904-0.14047-0.69246-0.39216-0.05795-0.084248-0.14037-0.13508-0.23395-0.13209-0.08934 8.255e-4 -0.17412 0.050096-0.23145 0.13595-0.17116 0.25546-0.42168 0.40318-0.68798 0.40568-0.26673 0.00255-0.51904-0.14047-0.69331-0.39268-0.05838-0.084768-0.14333-0.13242-0.23309-0.13158l-4.16e-4 3.7e-6c-0.08934 8.255e-4 -0.17412 0.050087-0.23145 0.13595-0.17073 0.25546-0.42083 0.40317-0.68713 0.40568-0.26673 0.00255-0.51946-0.14047-0.69374-0.39267-0.05753-0.084777-0.14291-0.13243-0.23309-0.13158-0.08976 8.246e-4 -0.17454 0.050096-0.23188 0.13595-0.17073 0.25546-0.42083 0.40317-0.68798 0.40568-0.16761 0.00155-0.30228 0.17085-0.301 0.37939 0.0013 0.20749 0.13801 0.3742 0.30562 0.37263 0.3382-0.0032 0.66022-0.14525 0.92073-0.39892 0.26359 0.24873 0.58818 0.38471 0.92595 0.38153 0.33735-0.0032 0.65938-0.14525 0.91988-0.39891 0.26359 0.24873 0.58818 0.38471 0.92553 0.38154 0.33735-0.0032 0.6598-0.14525 0.92031-0.39892m-13.942 1.4848c-0.00242-0.39497 0.30029-0.77174 0.8355-1.1149 0 0 9.6876-6.687 17.476-0.035538 0.41834 0.29941 0.65306 0.62636 0.65518 0.97183 0.0055 0.88789-1.5016 1.69-3.8302 2.2033-0.67753 0.44507-2.3613 0.59154-1.4477 1.3856 0.41146 0.35794 0.70672 0.63534 0.92204 0.85187 0.25039 0.17723 0.42347 0.37362 0.50391 0.58616 0.06617 0.10681 0.05572 0.13746 0.05572 0.13746l7.15e-4 0.1206c0.0279 1.1489-2.5385 2.219-5.7316 2.3902-3.1935 0.17174-5.8046-0.62104-5.832-1.7699-0.0119-0.48283 0.43873-0.95106 1.1974-1.3448l-0.00512-4.99e-4s0.00764-0.0027 0.018675-7e-3c0.10178-0.05257 0.20995-0.10362 0.32281-0.15314 0.29465-0.16656 0.66893-0.45922 0.64175-0.86765-0.054881-0.83107-1.025-1.0589-1.2852-1.1054-0.00766 7.2e-5 -0.015315 1.44e-4 -0.023432-5e-3 -0.024702-5e-3 -0.041309-0.0065-0.041309-0.0065l8.797e-4 -5.27e-4c-2.6583-0.45264-4.4276-1.2781-4.4335-2.2371" fill="#930600"/>
    </g>
</svg>
