<?xml version="1.0" encoding="UTF-8"?>
<svg width="22" height="40" version="1.1" viewBox="0 0 22 44" xmlns="http://www.w3.org/2000/svg">
    <g>
        <path d="m11 43.451s1.1473-11.581 3.8497-16.5c2.7023-4.919 7.6143-8.7029 7.6993-14.85 0.085013-6.1473-4.9481-11.517-11.549-11.55-6.6008-0.033261-11.633 5.251-11.549 11.55 0.084514 6.2992 4.9207 9.9073 7.6993 14.85 2.7787 4.9429 3.8497 16.5 3.8497 16.5z" fill="#f35048" fill-rule="evenodd" stroke="#971d15" stroke-linejoin="round" stroke-width="1.1"/>
        <g transform="matrix(.28882 0 0 .28882 1.4202 -282.83)" fill="#930600">
            <g transform="matrix(2.029 0 0 -2.029 61.962 1014.8)">
                <path d="m0 0c-0.751-0.841-2.05-1.685-4.228-2.386-2.773-0.892-6.427-1.383-10.292-1.383-0.536 0-1.068 0.01-1.594 0.029v-0.195c-0.569-0.056-1.014-0.536-1.014-1.12 0-0.418 0.228-0.781 0.565-0.975l-2.422-1.284c0 0.013 2e-3 0.025 2e-3 0.038 0 0.607-0.492 1.1-1.1 1.1s-1.1-0.493-1.1-1.1c0-0.392 0.206-0.735 0.514-0.93l-1.714-0.909v6.096c-0.865 0.181-1.681 0.392-2.43 0.633-2.178 0.701-3.477 1.545-4.228 2.386-0.477-2.425 0.191-4.726 0.655-7.276 0.272-1.489 2.342-2.851 5.922-3.658 0.024-5e-3 0.048-2e-3 0.069 0.01l6.281 3.327v-4.015c0-0.054 0.043-0.099 0.097-0.1 0.492-0.017 0.991-0.026 1.497-0.026 7.657 0 13.423 2.038 13.865 4.462 0.465 2.55 1.132 4.851 0.655 7.276" fill="#930600"/>
            </g>
            <g transform="matrix(2.029 0 0 -2.029 16.673 1017.6)">
                <path d="m0 0 4.158 1.966c0-1e-3 -1e-3 -2e-3 -1e-3 -3e-3 0-0.572 0.464-1.036 1.036-1.036s1.036 0.464 1.036 1.036c0 0.324-0.149 0.613-0.382 0.803l1.954 0.923-1.594-4.356v-0.076c0.523-0.02 1.055-0.03 1.594-0.03 7.657 0 13.865 1.998 13.865 4.462 0 2.465-6.208 4.463-13.865 4.463-7.658 0-13.866-1.998-13.866-4.463 0-1.533 2.404-2.886 6.065-3.689" fill="#930600"/>
            </g>
            <g transform="matrix(2.029 0 0 -2.029 24.308 1020.6)">
                <path d="m0 0c0-0.821-0.666-1.487-1.488-1.487-0.821 0-1.487 0.666-1.487 1.487 0 0.822 0.666 1.488 1.487 1.488 0.822 0 1.488-0.666 1.488-1.488" fill="#930600"/>
            </g>
        </g>
    </g>
</svg>
