<?xml version="1.0" encoding="UTF-8"?>
<svg width="22" height="40" version="1.1" viewBox="0 0 22 44" xmlns="http://www.w3.org/2000/svg">
    <g>
        <path d="m11 43.451s1.1473-11.581 3.8497-16.5c2.7023-4.919 7.6143-8.7029 7.6993-14.85 0.085013-6.1473-4.9481-11.517-11.549-11.55-6.6008-0.033261-11.633 5.251-11.549 11.55 0.084514 6.2992 4.9207 9.9073 7.6993 14.85 2.7787 4.9429 3.8497 16.5 3.8497 16.5z" fill="#f35048" fill-rule="evenodd" stroke="#971d15" stroke-linejoin="round" stroke-width="1.1"/>
        <g transform="matrix(.25532 0 0 .25532 2.7634 -250.81)" fill="#8c0300">
            <g transform="matrix(2.0785 0 0 -2.7012 31.786 1019.6)" fill="#8c0300">
                <path d="m0 0 3.456-8.728h-6.912zm-0.593 8.72-12.412-17.448h-2.708c-0.368 0-0.667-0.299-0.667-0.667 0-0.369 0.299-0.667 0.667-0.667h31.426c0.368 0 0.667 0.298 0.667 0.667 0 0.368-0.299 0.667-0.667 0.667h-2.708l-12.412 17.448-0.593 0.718z" fill="#8c0300"/>
            </g>
        </g>
    </g>
</svg>
