<?xml version="1.0" encoding="UTF-8"?>
<svg width="22" height="40" version="1.1" viewBox="0 0 22 44" xmlns="http://www.w3.org/2000/svg">
    <path d="m11 43.451s1.1473-11.581 3.8497-16.5c2.7023-4.919 7.6143-8.7029 7.6993-14.85 0.085013-6.1473-4.9481-11.517-11.549-11.55-6.6008-0.033261-11.633 5.251-11.549 11.55 0.084514 6.2992 4.9207 9.9073 7.6993 14.85 2.7787 4.9429 3.8497 16.5 3.8497 16.5z" fill="#f35048" fill-rule="evenodd" stroke="#971d15" stroke-linejoin="round" stroke-width="1.1"/>
    <g transform="matrix(.61334 0 0 .61334 -9.9264 -651.96)">
        <g transform="matrix(2.402 0 0 -2.402 56.871 1023.9)">
            <path d="m-5.7093-24.905v5.1477s0 0.32076-0.31875 0.32076c-0.23026 0-0.29433-0.16258-0.31315-0.25668-1.0275 0.14736-1.3731-0.38483-2.2509-0.38483-0.96027 0-1.6018 0.32556-1.6018 0.32556v-2.506s0.64151-0.38162 1.6018-0.38162c0.87457 0 1.2218 0.52859 2.2433 0.38323v-2.6481c-0.55221-0.07208-0.96227-0.31916-0.96227-0.61789 0-0.05326 0.017222-0.10171 0.040847-0.15177l-3.6605-1.464c-0.39724 0.20623-0.92423 0.33477-1.5045 0.33477-1.239 0-2.2433-0.57424-2.2433-1.283 0-0.70679 1.0043-1.281 2.2433-1.281 1.2386 0 2.2413 0.57424 2.2413 1.281 0 0.17219-0.05927 0.33637-0.16739 0.48494l3.7654 1.5065c0.17179-0.04205 0.3628-0.06887 0.56783-0.06887 0.70679 0 1.281 0.28792 1.281 0.64151 0 0.29873-0.41006 0.54581-0.96227 0.61789" fill="#990300"/>
        </g>
    </g>
</svg>
