<?xml version="1.0" encoding="UTF-8"?>
<svg width="22" height="40" version="1.1" viewBox="0 0 22 44" xmlns="http://www.w3.org/2000/svg">
    <g>
        <path d="m11 43.451s1.1473-11.581 3.8497-16.5c2.7023-4.919 7.6143-8.7029 7.6993-14.85 0.085013-6.1473-4.9481-11.517-11.549-11.55-6.6008-0.033261-11.633 5.251-11.549 11.55 0.084514 6.2992 4.9207 9.9073 7.6993 14.85 2.7787 4.9429 3.8497 16.5 3.8497 16.5z" fill="#f35048" fill-rule="evenodd" stroke="#971d15" stroke-linejoin="round" stroke-width="1.1"/>
        <g transform="matrix(.26034 0 0 .26034 2.0796 .23377)" fill="#910000">
            <g transform="matrix(-1.4757 -.0029084 -.023549 -1.7594 -4.0412 53.29)" fill="#910000">
                <path transform="matrix(-.78048 .0012902 -.0011143 -.67412 .73013 38.43)" d="m23.691 28.305c-1.6251-0.0029-3.2511 0.80134-4.3809 2.4102l-18.457 26.295 20.299 0.039062 45.594 0.085938-18.383-26.365c-2.2504-3.2277-6.4963-3.2333-8.7559-0.01563l-5.123 7.2988c-0.34022 0.48294-0.97689 0.48228-1.3145-2e-3l-5.1035-7.3203c-1.1246-1.6139-2.7499-2.4229-4.375-2.4258zm-0.90234 12.146c1.8162 0.0035 3.6311 0.90768 4.8887 2.7109l2.4219 3.4727c1.4538 2.0855 4.1984 2.0892 5.6582 0.0078l2.4316-3.4609c2.5254-3.5969 7.2701-3.5889 9.7852 0.01758l8.418 12.076-9.9551-10.941c-1.8383-2.0224-4.7543-1.8941-6.4551 0.2832l-4.3555 5.5684c-1.4492 1.8544-3.9643 1.8502-5.4082-0.0098l-4.3379-5.5859c-1.6958-2.1839-4.6117-2.324-6.457-0.30859l-9.9844 10.904 8.4531-12.043c1.2627-1.7984 3.0803-2.6949 4.8965-2.6914z" fill="#910000"/>
            </g>
        </g>
    </g>
</svg>
